<svg width="653" height="155" viewBox="0 0 653 155" fill="none" xmlns="http://www.w3.org/2000/svg">
<path d="M146.064 10.1965L86.2713 134.493C83.3722 149.858 95.6932 154.564 102.216 154.997H172.156C200.784 154.997 197.835 151.526 207.669 134.493C221.896 109.852 242.82 61.293 258.765 27.667C270.352 3.22978 253.769 -0.503594 242.82 0.0498303H169.981C156.266 0.0498303 150.711 2.14708 146.064 10.1965Z" fill="#0073D8"/>
<path d="M54.5302 103.265C62.1286 117.644 82.8774 117.191 89.8409 102.494L125.005 28.277C131.213 15.1735 121.656 0.0701108 107.156 0.0701108H32.7747C17.8981 0.0701108 8.36205 15.8947 15.3125 29.0479L54.5302 103.265Z" fill="#0073D8"/>
<path d="M309.992 93.1084C309.992 94.4718 308.886 95.5771 307.523 95.5771H260.436C259.073 95.5771 257.967 96.6825 257.967 98.0459V99.9091C257.967 101.273 259.073 102.378 260.436 102.378H305.733C307.096 102.378 308.202 103.483 308.202 104.847V116.733C308.202 118.097 307.096 119.202 305.733 119.202H260.436C259.073 119.202 257.967 120.307 257.967 121.671V123.654C257.967 125.018 259.073 126.123 260.436 126.123H308.239C309.602 126.123 310.708 127.228 310.708 128.592V152.53C310.708 153.894 309.602 154.999 308.239 154.999H216.023C214.189 154.999 212.995 153.069 213.814 151.428L256.01 66.8742C256.428 66.0369 257.283 65.5078 258.219 65.5078H307.523C308.886 65.5078 309.992 66.6131 309.992 67.9766V93.1084Z" fill="#E6E6E6"/>
<path d="M416.091 65.5078C418.09 65.5078 419.26 67.7595 418.112 69.3954L383.152 119.179C383.142 119.194 383.136 119.191 383.136 119.209C383.136 119.26 383.176 119.322 383.227 119.322C383.246 119.322 383.255 119.322 383.255 119.322H415.509C416.872 119.322 417.978 120.427 417.978 121.791V152.53C417.978 153.894 416.872 154.999 415.509 154.999H315.722C313.674 154.999 312.516 152.648 313.765 151.025L352.094 101.209C352.106 101.193 352.112 101.152 352.112 101.132C352.112 101.083 352.072 101.066 352.023 101.066C352.014 101.066 352.004 101.066 351.993 101.066H316.637C315.273 101.066 314.168 99.9604 314.168 98.5969V67.9766C314.168 66.6131 315.273 65.5078 316.637 65.5078H416.091Z" fill="#E6E6E6"/>
<path d="M525.882 65.5078C527.245 65.5078 528.35 66.6131 528.35 67.9766V99.3128C528.35 100.676 527.245 101.782 525.882 101.782H499.678C499.624 101.782 499.572 101.803 499.534 101.841C499.524 101.852 499.512 101.863 499.499 101.876C499.484 101.892 499.487 101.901 499.464 101.901C499.418 101.901 499.355 101.939 499.355 101.985C499.355 101.996 499.355 102.008 499.355 102.02C499.355 105.52 499.355 109.06 499.355 112.64C499.355 116.14 499.355 119.68 499.355 123.26C499.355 126.76 499.355 130.3 499.355 133.879C499.355 137.379 499.355 140.919 499.355 144.499C499.355 147.176 499.355 149.853 499.355 152.53C499.355 153.894 498.25 154.999 496.886 154.999H452.306C450.942 154.999 449.837 153.894 449.837 152.53C449.837 147.467 449.837 142.403 449.837 137.34C449.837 131.453 449.837 125.566 449.837 119.68C449.837 113.793 449.837 107.907 449.837 102.02C449.837 101.913 449.705 101.782 449.598 101.782H423.31C421.947 101.782 420.842 100.676 420.842 99.3128V67.9766C420.842 66.6131 421.947 65.5078 423.31 65.5078H525.882Z" fill="#E6E6E6"/>
<path d="M625.653 65.5078C626.751 65.5078 627.718 66.2333 628.022 67.2889C629.273 71.6361 630.494 76.0142 631.683 80.423C633.115 85.355 634.507 90.3267 635.86 95.3383C637.291 100.27 638.723 105.242 640.155 110.253C641.587 115.185 642.979 120.157 644.331 125.169C645.763 130.101 647.155 135.072 648.508 140.084C649.639 143.982 650.771 147.905 651.903 151.852C652.355 153.429 651.17 154.999 649.53 154.999H601.663C600.462 154.999 599.436 154.135 599.231 152.952L597.7 144.129C597.617 143.653 597.205 143.306 596.722 143.306C596.483 143.306 596.205 143.306 595.887 143.306H582.761C582.523 143.306 582.284 143.306 582.045 143.306C581.632 143.306 581.278 143.603 581.207 144.011L579.656 152.952C579.451 154.135 578.424 154.999 577.224 154.999H531.624C529.983 154.999 528.799 153.429 529.246 151.851C530.365 147.904 531.458 143.981 532.527 140.084C533.959 135.072 535.351 130.101 536.703 125.169C538.135 120.157 539.527 115.185 540.879 110.253C542.311 105.242 543.703 100.27 545.056 95.3383C546.487 90.3267 547.88 85.355 549.232 80.423C550.488 76.0259 551.714 71.6593 552.909 67.3234C553.205 66.2514 554.179 65.5078 555.291 65.5078H625.653ZM582.763 134.825C582.762 134.831 582.761 134.845 582.761 134.851C582.761 134.912 582.811 134.953 582.872 134.953C582.874 134.953 582.878 134.953 582.881 134.953H596.006C596.009 134.953 596.012 134.953 596.015 134.953C596.076 134.953 596.125 134.895 596.125 134.834C596.125 134.83 596.125 134.83 596.124 134.825C596.108 134.727 595.949 133.775 595.648 131.97C595.33 129.981 594.892 127.515 594.336 124.572C593.858 121.549 593.341 118.367 592.784 115.026C592.228 111.606 591.71 108.384 591.233 105.361C590.756 102.338 590.318 99.8725 589.921 97.9633C589.648 96.3263 589.492 95.3911 589.453 95.1578C589.447 95.1238 589.448 95.0996 589.414 95.0996C589.379 95.0996 589.32 95.1238 589.314 95.1578C589.275 95.3911 589.12 96.3263 588.847 97.9633C588.529 99.8725 588.091 102.338 587.534 105.361C587.057 108.384 586.54 111.606 585.983 115.026C585.426 118.367 584.909 121.549 584.432 124.572C583.955 127.515 583.557 129.981 583.239 131.97C582.938 133.775 582.779 134.727 582.763 134.825Z" fill="#E6E6E6"/>
</svg>
